<svg version="1.2" xmlns="http://www.w3.org/2000/svg" viewBox="0 0 20 17" width="20" height="17"><style>.a{fill:#828ba2}</style><path class="a" d="m20.2 2.3q-1.1 0.5-2.4 0.6c0.9-0.5 1.5-1.3 1.8-2.3q-1.2 0.7-2.6 1c-0.8-0.8-1.9-1.3-3.1-1.3-2.4 0-4.2 1.9-4.2 4.2q0 0.5 0.1 1c-3.5-0.2-6.7-1.9-8.7-4.5-0.4 0.7-0.6 1.4-0.6 2.2 0 1.4 0.7 2.7 1.9 3.5-0.7 0-1.4-0.2-2-0.5q0 0 0 0c0 2.1 1.5 3.8 3.4 4.2q-0.5 0.1-1.1 0.1-0.4 0-0.8-0.1c0.6 1.7 2.1 2.9 4 3-1.5 1.1-3.3 1.8-5.3 1.8q-0.5 0-1-0.1c1.9 1.2 4.1 1.9 6.5 1.9 7.8 0 12-6.4 12-12q0-0.3 0-0.6 1.3-0.9 2.1-2.1z"/></svg>